<mxfile host="Electron" agent="Mozilla/5.0 (Windows NT 10.0; Win64; x64) AppleWebKit/537.36 (KHTML, like Gecko) draw.io/26.0.4 Chrome/128.0.6613.186 Electron/32.2.5 Safari/537.36" version="26.0.4">
  <diagram name="Page-1" id="0OsaJXPu13V0EZeyELX-">
    <mxGraphModel dx="446" dy="288" grid="1" gridSize="10" guides="1" tooltips="1" connect="1" arrows="1" fold="1" page="1" pageScale="1" pageWidth="570" pageHeight="940" math="0" shadow="0">
      <root>
        <mxCell id="0" />
        <mxCell id="1" parent="0" />
        <mxCell id="DahDBcuEWJidHnHv1gG9-14" value="" style="group" vertex="1" connectable="0" parent="1">
          <mxGeometry x="90" y="80" width="90" height="90" as="geometry" />
        </mxCell>
        <mxCell id="DahDBcuEWJidHnHv1gG9-8" value="" style="whiteSpace=wrap;html=1;aspect=fixed;fillColor=none;connectable=0;" vertex="1" parent="DahDBcuEWJidHnHv1gG9-14">
          <mxGeometry width="90" height="90" as="geometry" />
        </mxCell>
        <mxCell id="DahDBcuEWJidHnHv1gG9-9" value="" style="endArrow=none;html=1;rounded=0;" edge="1" parent="DahDBcuEWJidHnHv1gG9-14">
          <mxGeometry width="50" height="50" relative="1" as="geometry">
            <mxPoint y="30" as="sourcePoint" />
            <mxPoint x="90" y="30" as="targetPoint" />
          </mxGeometry>
        </mxCell>
        <mxCell id="DahDBcuEWJidHnHv1gG9-10" value="" style="endArrow=none;html=1;rounded=0;" edge="1" parent="DahDBcuEWJidHnHv1gG9-14">
          <mxGeometry width="50" height="50" relative="1" as="geometry">
            <mxPoint y="60" as="sourcePoint" />
            <mxPoint x="90" y="60" as="targetPoint" />
          </mxGeometry>
        </mxCell>
        <mxCell id="DahDBcuEWJidHnHv1gG9-11" value="" style="endArrow=none;html=1;rounded=0;" edge="1" parent="DahDBcuEWJidHnHv1gG9-14">
          <mxGeometry width="50" height="50" relative="1" as="geometry">
            <mxPoint x="30" y="90" as="sourcePoint" />
            <mxPoint x="30" as="targetPoint" />
          </mxGeometry>
        </mxCell>
        <mxCell id="DahDBcuEWJidHnHv1gG9-13" value="" style="endArrow=none;html=1;rounded=0;" edge="1" parent="DahDBcuEWJidHnHv1gG9-14">
          <mxGeometry width="50" height="50" relative="1" as="geometry">
            <mxPoint x="60" y="90" as="sourcePoint" />
            <mxPoint x="60" as="targetPoint" />
          </mxGeometry>
        </mxCell>
        <mxCell id="DahDBcuEWJidHnHv1gG9-24" value="1" style="text;html=1;align=center;verticalAlign=middle;whiteSpace=wrap;rounded=0;" vertex="1" parent="DahDBcuEWJidHnHv1gG9-14">
          <mxGeometry y="6" width="30" height="20" as="geometry" />
        </mxCell>
        <mxCell id="DahDBcuEWJidHnHv1gG9-25" value="2" style="text;html=1;align=center;verticalAlign=middle;whiteSpace=wrap;rounded=0;" vertex="1" parent="DahDBcuEWJidHnHv1gG9-14">
          <mxGeometry x="30" y="6" width="30" height="20" as="geometry" />
        </mxCell>
        <mxCell id="DahDBcuEWJidHnHv1gG9-26" value="3" style="text;html=1;align=center;verticalAlign=middle;whiteSpace=wrap;rounded=0;" vertex="1" parent="DahDBcuEWJidHnHv1gG9-14">
          <mxGeometry x="60" y="6" width="30" height="20" as="geometry" />
        </mxCell>
        <mxCell id="DahDBcuEWJidHnHv1gG9-27" value="X" style="text;html=1;align=center;verticalAlign=middle;whiteSpace=wrap;rounded=0;" vertex="1" parent="DahDBcuEWJidHnHv1gG9-14">
          <mxGeometry y="35" width="30" height="20" as="geometry" />
        </mxCell>
        <mxCell id="DahDBcuEWJidHnHv1gG9-28" value="4" style="text;html=1;align=center;verticalAlign=middle;whiteSpace=wrap;rounded=0;" vertex="1" parent="DahDBcuEWJidHnHv1gG9-14">
          <mxGeometry x="30" y="35" width="30" height="20" as="geometry" />
        </mxCell>
        <mxCell id="DahDBcuEWJidHnHv1gG9-30" value="6" style="text;html=1;align=center;verticalAlign=middle;whiteSpace=wrap;rounded=0;" vertex="1" parent="DahDBcuEWJidHnHv1gG9-14">
          <mxGeometry x="60" y="35" width="30" height="20" as="geometry" />
        </mxCell>
        <mxCell id="DahDBcuEWJidHnHv1gG9-31" value="8" style="text;html=1;align=center;verticalAlign=middle;whiteSpace=wrap;rounded=0;" vertex="1" parent="DahDBcuEWJidHnHv1gG9-14">
          <mxGeometry y="65" width="30" height="20" as="geometry" />
        </mxCell>
        <mxCell id="DahDBcuEWJidHnHv1gG9-32" value="5" style="text;html=1;align=center;verticalAlign=middle;whiteSpace=wrap;rounded=0;" vertex="1" parent="DahDBcuEWJidHnHv1gG9-14">
          <mxGeometry x="30" y="65" width="30" height="20" as="geometry" />
        </mxCell>
        <mxCell id="DahDBcuEWJidHnHv1gG9-33" value="9" style="text;html=1;align=center;verticalAlign=middle;whiteSpace=wrap;rounded=0;" vertex="1" parent="DahDBcuEWJidHnHv1gG9-14">
          <mxGeometry x="60" y="65" width="30" height="20" as="geometry" />
        </mxCell>
        <mxCell id="DahDBcuEWJidHnHv1gG9-34" value="" style="group" vertex="1" connectable="0" parent="1">
          <mxGeometry x="305" y="80" width="90" height="90" as="geometry" />
        </mxCell>
        <mxCell id="DahDBcuEWJidHnHv1gG9-35" value="" style="whiteSpace=wrap;html=1;aspect=fixed;fillColor=none;connectable=0;" vertex="1" parent="DahDBcuEWJidHnHv1gG9-34">
          <mxGeometry width="90" height="90" as="geometry" />
        </mxCell>
        <mxCell id="DahDBcuEWJidHnHv1gG9-36" value="" style="endArrow=none;html=1;rounded=0;" edge="1" parent="DahDBcuEWJidHnHv1gG9-34">
          <mxGeometry width="50" height="50" relative="1" as="geometry">
            <mxPoint y="30" as="sourcePoint" />
            <mxPoint x="90" y="30" as="targetPoint" />
          </mxGeometry>
        </mxCell>
        <mxCell id="DahDBcuEWJidHnHv1gG9-37" value="" style="endArrow=none;html=1;rounded=0;" edge="1" parent="DahDBcuEWJidHnHv1gG9-34">
          <mxGeometry width="50" height="50" relative="1" as="geometry">
            <mxPoint y="60" as="sourcePoint" />
            <mxPoint x="90" y="60" as="targetPoint" />
          </mxGeometry>
        </mxCell>
        <mxCell id="DahDBcuEWJidHnHv1gG9-38" value="" style="endArrow=none;html=1;rounded=0;" edge="1" parent="DahDBcuEWJidHnHv1gG9-34">
          <mxGeometry width="50" height="50" relative="1" as="geometry">
            <mxPoint x="30" y="90" as="sourcePoint" />
            <mxPoint x="30" as="targetPoint" />
          </mxGeometry>
        </mxCell>
        <mxCell id="DahDBcuEWJidHnHv1gG9-39" value="" style="endArrow=none;html=1;rounded=0;" edge="1" parent="DahDBcuEWJidHnHv1gG9-34">
          <mxGeometry width="50" height="50" relative="1" as="geometry">
            <mxPoint x="60" y="90" as="sourcePoint" />
            <mxPoint x="60" as="targetPoint" />
          </mxGeometry>
        </mxCell>
        <mxCell id="DahDBcuEWJidHnHv1gG9-40" value="1" style="text;html=1;align=center;verticalAlign=middle;whiteSpace=wrap;rounded=0;" vertex="1" parent="DahDBcuEWJidHnHv1gG9-34">
          <mxGeometry y="6" width="30" height="20" as="geometry" />
        </mxCell>
        <mxCell id="DahDBcuEWJidHnHv1gG9-41" value="2" style="text;html=1;align=center;verticalAlign=middle;whiteSpace=wrap;rounded=0;" vertex="1" parent="DahDBcuEWJidHnHv1gG9-34">
          <mxGeometry x="30" y="6" width="30" height="20" as="geometry" />
        </mxCell>
        <mxCell id="DahDBcuEWJidHnHv1gG9-42" value="3" style="text;html=1;align=center;verticalAlign=middle;whiteSpace=wrap;rounded=0;" vertex="1" parent="DahDBcuEWJidHnHv1gG9-34">
          <mxGeometry x="60" y="6" width="30" height="20" as="geometry" />
        </mxCell>
        <mxCell id="DahDBcuEWJidHnHv1gG9-43" value="8" style="text;html=1;align=center;verticalAlign=middle;whiteSpace=wrap;rounded=0;" vertex="1" parent="DahDBcuEWJidHnHv1gG9-34">
          <mxGeometry y="35" width="30" height="20" as="geometry" />
        </mxCell>
        <mxCell id="DahDBcuEWJidHnHv1gG9-44" value="X" style="text;html=1;align=center;verticalAlign=middle;whiteSpace=wrap;rounded=0;" vertex="1" parent="DahDBcuEWJidHnHv1gG9-34">
          <mxGeometry x="30" y="35" width="30" height="20" as="geometry" />
        </mxCell>
        <mxCell id="DahDBcuEWJidHnHv1gG9-45" value="4" style="text;html=1;align=center;verticalAlign=middle;whiteSpace=wrap;rounded=0;" vertex="1" parent="DahDBcuEWJidHnHv1gG9-34">
          <mxGeometry x="60" y="35" width="30" height="20" as="geometry" />
        </mxCell>
        <mxCell id="DahDBcuEWJidHnHv1gG9-46" value="7" style="text;html=1;align=center;verticalAlign=middle;whiteSpace=wrap;rounded=0;" vertex="1" parent="DahDBcuEWJidHnHv1gG9-34">
          <mxGeometry y="65" width="30" height="20" as="geometry" />
        </mxCell>
        <mxCell id="DahDBcuEWJidHnHv1gG9-47" value="6" style="text;html=1;align=center;verticalAlign=middle;whiteSpace=wrap;rounded=0;" vertex="1" parent="DahDBcuEWJidHnHv1gG9-34">
          <mxGeometry x="30" y="65" width="30" height="20" as="geometry" />
        </mxCell>
        <mxCell id="DahDBcuEWJidHnHv1gG9-48" value="5" style="text;html=1;align=center;verticalAlign=middle;whiteSpace=wrap;rounded=0;" vertex="1" parent="DahDBcuEWJidHnHv1gG9-34">
          <mxGeometry x="60" y="65" width="30" height="20" as="geometry" />
        </mxCell>
        <mxCell id="DahDBcuEWJidHnHv1gG9-49" value="" style="endArrow=classic;html=1;rounded=0;" edge="1" parent="1">
          <mxGeometry width="50" height="50" relative="1" as="geometry">
            <mxPoint x="205" y="124.71" as="sourcePoint" />
            <mxPoint x="285" y="124.71" as="targetPoint" />
          </mxGeometry>
        </mxCell>
        <mxCell id="DahDBcuEWJidHnHv1gG9-50" value="Starting&amp;nbsp;&lt;div&gt;State&lt;/div&gt;" style="text;html=1;align=center;verticalAlign=middle;whiteSpace=wrap;rounded=0;" vertex="1" parent="1">
          <mxGeometry x="105" y="180" width="60" height="30" as="geometry" />
        </mxCell>
        <mxCell id="DahDBcuEWJidHnHv1gG9-51" value="&lt;div&gt;Goal&lt;/div&gt;&lt;div&gt;State&lt;/div&gt;" style="text;html=1;align=center;verticalAlign=middle;whiteSpace=wrap;rounded=0;" vertex="1" parent="1">
          <mxGeometry x="320" y="180" width="60" height="30" as="geometry" />
        </mxCell>
      </root>
    </mxGraphModel>
  </diagram>
</mxfile>
